<svg xmlns="http://www.w3.org/2000/svg" width="103" height="56" viewBox="0 0 103 56">
    <path fill="#171738" fill-rule="evenodd" d="M69.905 21.35c-.169.795-1.534 6.82-.797 10.95.217 1.235.894 2.31 1.631 2.323 1.16.024 1.994-1.613 2.44-2.566 0-1.37.037-7.089-.857-9.839 1.075-.366 3.661-.977 4.64-.977h.233c1.24.002 2.946.081 2.776 2.102-.278 3.275-.93 13.162-1.559 20.128 6.598 2.029 12.373 6.637 24.07 2.542 1.535 4.278-.399 8.86-5.039 9.228-5.824.464-11.914-4.437-19.986-7.553-2.187 5.17-6.476 7.931-10.222 8.261-4.399.38-7.407-2.346-7.407-5.793 0-6.843 6.428-8.506 13.316-7.944 0 0 .06-3.385 0-5.854-1.245 3.202-2.9 5.39-6.755 4.241-4.108-1.222-5.268-8.36-3.504-18.026.241-.82 1.788-2.078 7.02-1.222zm-4.072 28.146c0 2.542 2.513 4.486 4.507 2.017 1.994-2.469 2.272-5.084 2.272-5.267-3.661-.6-6.779.097-6.779 3.25zM32.845 10.608c-.555 5.39-3.274 8.897-5.22 10.45 0 0 .69-.233 2.115-.392 1.269-.134 2.332.501 2.272 2.102-.025.721.145 1.98.048 3.141 2.139-11.99 5.824-14.543 9.4-14.543 2.599 0 3.94 2.542 3.517 4.595-.29 1.442-.93 2.273-1.97 2.676-.604.245-1.365.233-2.259.33-5.764.587-7.685 7.04-8.301 11.708-.617 4.67-.484 9.79 1.075 11.256-7.395 1.834-8.072-1.576-7.757-5.06.35-3.849.749-10.436-.726-13.626-1.534 1.149-7.624 4.167-10.125 1.515-.29 9.142-.472 13.114 3.093 16.536 0 0-5.74 1.833-8.144 1.833-2.115 0-2.115-2.566-2.224-4.143-.193-6.44 1.837-15.497-.495-20.776 0 0 .967-1.125 4.918-1.92 3.661-.732 3.36 1.406 3.093 5.794 2.586-.917 6.163-2.298 8.386-5.585 2.224-3.288.822-6.392-5.087-5.488-6.332.978-15.189 7.382-13.823 12.906-7.02-.281-5.353-8.714.302-14.262 3.975-3.85 10.5-8.653 18.21-9.57 7.672-.904 10.343 4.424 9.702 10.523zm28.433 3.8c2.235-.55 4.023-1.405 6.513-3.213 1.885.048 3.153 1.515 3.153 3.08 0 1.833-1.027 2.786-2.392 3.727-1.523 1.026-3.988 1.638-6.984 1.613.108.733-.423 8.457-1.97 13.456-2.61 8.457-6.38 10.437-8.676 9.948-3.009-.648-4.422-5.756-4.519-10.254-.085-4.167.35-8.335 1.063-9.765 1.487-2.652 5.474-4.02 6.791-3.055-2.574 6.135-2.139 15.533-.145 15.216 2.14-.367 4.616-8.849 3.867-16.353-3.782-2.505-3.444-8.115-1.486-9.398 1.957-1.283 3.987-.77 4.785 4.999zM42.68 21.144c2.61 0 2.079 3.47 1.692 5.548-.979 5.194-2.32 9.154 1.57 14.703-1.679.537-3.395.953-4.845 1.002-2.03.073-3.42.403-3.721-2.554-.484-4.791 1.752-10.804-.182-17.343.013 0 2.72-1.356 5.486-1.356z"/>
</svg>
